<svg width="100" height="100" viewBox="0 0 100 100" xmlns="http://www.w3.org/2000/svg">
   <g transform="translate(8,18)" stroke="#ce2e2e" stroke-width="10">
    <path d="M 60,20 A 25,25 180 1 0 60,50" fill="none"/>
    <line x1="58" x2="58" y1="54" y2="80"/>
    <line x1="0" x2="50" y1="60" y2="30" />
    <line x1="44.7" x2="60" y1="30" y2="40" />
    <line x1="54.7" x2="70" y1="40" y2="30" />
    <line x1="64.7" x2="80" y1="30" y2="40" />
  </g>
  <g transform="translate(10,10)" stroke="#ff908b" stroke-width="10">
    <path d="M 60,20 A 25,25 180 1 0 60,50" fill="none"/>
    <line x1="58" x2="58" y1="54" y2="80"/>
    <line x1="0" x2="50" y1="60" y2="30" />
    <line x1="44.7" x2="60" y1="30" y2="40" />
    <line x1="54.7" x2="70" y1="40" y2="30" />
    <line x1="64.7" x2="80" y1="30" y2="40" />
  </g>
</svg>