<svg xmlns="http://www.w3.org/2000/svg" version="1.1" xmlns:xlink="http://www.w3.org/1999/xlink" xmlns:svgjs="http://svgjs.dev/svgjs" width="1500" height="1500" viewBox="0 0 1500 1500"><rect width="1500" height="1500" fill="#000000"></rect><g transform="matrix(0.6666666666666666,0,0,0.6666666666666666,249.39393939393938,438.5856950067477)"><svg viewBox="0 0 396 247" data-background-color="#ff908b" preserveAspectRatio="xMidYMid meet" height="935" width="1500" xmlns="http://www.w3.org/2000/svg" xmlns:xlink="http://www.w3.org/1999/xlink"><g id="tight-bounds" transform="matrix(1,0,0,1,0.2400000000000091,-0.09999999999999432)"><svg viewBox="0 0 395.52 247.2" height="247.2" width="395.52"><g><svg></svg></g><g><svg viewBox="0 0 395.52 247.2" height="247.2" width="395.52"><g transform="matrix(1,0,0,1,75.54432,77.27943001460082)"><svg viewBox="0 0 244.43135999999998 92.64113997079836" height="92.64113997079836" width="244.43135999999998"><g><svg viewBox="0 0 447.34199499668273 169.54564411581177" height="92.64113997079836" width="244.43135999999998"><g transform="matrix(1,0,0,1,202.91063499668277,32.54068064945519)"><svg viewBox="0 0 244.43135999999996 104.46428281690139" height="104.46428281690139" width="244.43135999999996"><g id="textblocktransform"><svg viewBox="0 0 244.43135999999996 104.46428281690139" height="104.46428281690139" width="244.43135999999996" id="textblock"><g><svg viewBox="0 0 244.43135999999996 104.46428281690139" height="104.46428281690139" width="244.43135999999996"><g transform="matrix(1,0,0,1,0,0)"><svg width="244.43135999999996" viewBox="1.75 -37.7 113.59 48.550000000000004" height="104.46428281690139" data-palette-color="#ffffff"><path d="M14.5-35.25Q17.15-35.25 19.18-34.38 21.2-33.5 23.1-31.7L23.1-31.7 20.05-28.05Q18.75-29.25 17.53-29.83 16.3-30.4 14.85-30.4L14.85-30.4Q11.85-30.4 10.15-27.4 8.45-24.4 8.45-17.35L8.45-17.35Q8.45-10.4 10.15-7.38 11.85-4.35 14.95-4.35L14.95-4.35Q16.5-4.35 17.65-4.98 18.8-5.6 20.35-6.9L20.35-6.9 23.4-3.4Q21.8-1.6 19.55-0.43 17.3 0.75 14.5 0.75L14.5 0.75Q8.65 0.75 5.2-3.8 1.75-8.35 1.75-17.35L1.75-17.35Q1.75-23.3 3.4-27.3 5.05-31.3 7.93-33.27 10.8-35.25 14.5-35.25L14.5-35.25ZM36.05-27.15Q41.05-27.15 43.82-23.65 46.6-20.15 46.6-13.25L46.6-13.25Q46.6-6.65 43.8-2.95 41 0.75 36.05 0.75L36.05 0.75Q31.1 0.75 28.3-2.88 25.5-6.5 25.5-13.25L25.5-13.25Q25.5-19.95 28.3-23.55 31.1-27.15 36.05-27.15L36.05-27.15ZM36.05-22.5Q33.9-22.5 32.9-20.38 31.9-18.25 31.9-13.25L31.9-13.25Q31.9-8.2 32.9-6.08 33.9-3.95 36.05-3.95L36.05-3.95Q38.2-3.95 39.2-6.08 40.2-8.2 40.2-13.25L40.2-13.25Q40.2-18.3 39.2-20.4 38.2-22.5 36.05-22.5L36.05-22.5ZM56.75 0.75Q54.05 0.75 52.47-0.93 50.9-2.6 50.9-5.4L50.9-5.4 50.9-37.05 57.05-37.7 57.05-5.65Q57.05-5 57.34-4.6 57.65-4.2 58.25-4.2L58.25-4.2Q58.59-4.2 58.92-4.3 59.25-4.4 59.34-4.4L59.34-4.4 60.55-0.2Q58.84 0.75 56.75 0.75L56.75 0.75ZM81.54-29.85L83.09-25.1Q82.04-24.6 80.57-24.4 79.09-24.2 76.89-24.2L76.89-24.2Q78.99-23.2 80.02-21.53 81.04-19.85 81.04-17.4L81.04-17.4Q81.04-13.4 78.59-10.95 76.14-8.5 71.94-8.5L71.94-8.5Q70.69-8.5 69.39-8.9L69.39-8.9Q68.49-8.15 68.49-6.85L68.49-6.85Q68.49-5.85 69.04-5.35 69.59-4.85 71.09-4.85L71.09-4.85 73.89-4.85Q77.89-4.85 80.24-2.78 82.59-0.7 82.59 2.5L82.59 2.5Q82.59 6.3 79.67 8.58 76.74 10.85 71.34 10.85L71.34 10.85Q65.64 10.85 63.37 8.75 61.09 6.65 61.09 2.6L61.09 2.6 66.54 2.6Q66.54 4.75 67.54 5.65 68.54 6.55 71.39 6.55L71.39 6.55Q74.14 6.55 75.29 5.6 76.44 4.65 76.44 2.9L76.44 2.9Q76.44 1.2 75.49 0.4 74.54-0.4 72.54-0.4L72.54-0.4 70.64-0.4Q66.84-0.4 65.09-1.75 63.34-3.1 63.34-5.45L63.34-5.45Q63.34-6.8 64.07-8.03 64.79-9.25 66.04-10.2L66.04-10.2Q63.99-11.5 63.04-13.3 62.09-15.1 62.09-17.7L62.09-17.7Q62.09-22.05 64.69-24.58 67.29-27.1 71.69-27.1L71.69-27.1Q74.94-27.1 77.07-27.8 79.19-28.5 81.54-29.85L81.54-29.85ZM71.69-23Q69.94-23 69.04-21.75 68.14-20.5 68.14-17.8L68.14-17.8Q68.14-15.25 69.04-13.88 69.94-12.5 71.64-12.5L71.64-12.5Q73.39-12.5 74.24-13.73 75.09-14.95 75.09-17.85L75.09-17.85Q75.09-20.55 74.27-21.78 73.44-23 71.69-23L71.69-23ZM109.49-27.15Q112.14-27.15 113.74-25.1 115.34-23.05 115.34-19.6L115.34-19.6 115.34 0 109.29 0 109.29-18.95Q109.29-20.85 108.79-21.68 108.29-22.5 107.34-22.5L107.34-22.5Q105.39-22.5 103.59-18.8L103.59-18.8 103.59 0 97.59 0 97.59-18.95Q97.59-22.5 95.69-22.5L95.69-22.5Q93.64-22.5 91.89-18.8L91.89-18.8 91.89 0 85.84 0 85.84-26.45 91.19-26.45 91.59-23.05Q94.19-27.15 97.84-27.15L97.84-27.15Q99.69-27.15 101.04-26 102.39-24.85 103.09-22.75L103.09-22.75Q105.74-27.15 109.49-27.15L109.49-27.15Z" opacity="1" transform="matrix(1,0,0,1,0,0)" fill="#ffffff" class="wordmark-text-0" data-fill-palette-color="primary" id="text-0"></path></svg></g></svg></g></svg></g></svg></g><g><svg viewBox="0 0 178.24912496639996 169.54564411581177" height="169.54564411581177" width="178.24912496639996"><g><svg xmlns="http://www.w3.org/2000/svg" xmlns:xlink="http://www.w3.org/1999/xlink" version="1.1" x="0" y="0" viewBox="11.19 10 77.62 73.83" enable-background="new 0 0 100 100" xml:space="preserve" height="169.54564411581177" width="178.24912496639996" class="icon-icon-0" data-fill-palette-color="accent" id="icon-0"><g fill="#ffffff" data-fill-palette-color="accent"><g fill="#ffffff" data-fill-palette-color="accent"><g fill="#ffffff" data-fill-palette-color="accent"><polygon points="68.93,60.57 75.53,80.891 71.49,83.83 50,68.22    " fill="#ffffff" data-fill-palette-color="accent"></polygon><polygon points="87.27,35.26 88.81,40.02 50,68.22 28.51,83.83 24.47,80.891 32.67,55.63 11.19,40.02 12.73,35.26 39.29,35.26      47.5,10 52.5,10 60.71,35.26    " fill="#ffffff" data-fill-palette-color="accent"></polygon></g></g></g></svg></g></svg></g></svg></g></svg></g><g><path d="M0 123.6c0-68.262 55.338-123.6 123.6-123.6 49.272 0 91.809 28.83 111.664 70.542l-2.858 0c-19.662-40.246-60.997-67.968-108.806-67.968-66.841 0-121.026 54.185-121.026 121.026 0 66.841 54.185 121.026 121.026 121.026 47.809 0 89.144-27.722 108.806-67.968h2.858c-19.855 41.711-62.393 70.542-111.664 70.542-68.262 0-123.6-55.338-123.6-123.6z" fill="#ffffff" stroke="transparent" data-fill-palette-color="tertiary"></path></g></svg></g><defs></defs></svg><rect width="395.52" height="247.2" fill="none" stroke="none" visibility="hidden"></rect></g></svg></g></svg>